<svg width="32" height="33" viewBox="0 0 32 33" fill="none" xmlns="http://www.w3.org/2000/svg">
<circle cx="16" cy="16" r="16" fill="#6429cd"/>
<g clip-path="url(#clip0_361_61)" filter="url(#filter0_d_361_61)">
<path d="M22.5541 18.1626H10.125L10.315 19.3738C10.3941 19.898 10.9008 20.2876 11.4945 20.2876H21.2004V20.9959H11.4866C10.505 20.9959 9.65788 20.3372 9.5233 19.4659L7.92413 9.15968C7.84496 8.63551 7.3383 8.24593 6.74455 8.24593H5.35913V7.5376H6.75246C7.73413 7.5376 8.58121 8.19635 8.7158 9.0676L8.92163 10.3709H14.0754V11.0793H9.02455L10.0141 17.4543H21.905L23.33 11.0793H18.0258V10.3709H24.2958L22.5541 18.1626ZM12.4841 23.1209C12.4841 23.9001 11.7716 24.5376 10.9008 24.5376C10.03 24.5376 9.31746 23.9001 9.31746 23.1209C9.31746 22.3418 10.03 21.7043 10.9008 21.7043C11.7716 21.7043 12.4841 22.3418 12.4841 23.1209ZM11.6925 23.1209C11.6925 22.7313 11.3362 22.4126 10.9008 22.4126C10.4654 22.4126 10.1091 22.7313 10.1091 23.1209C10.1091 23.5105 10.4654 23.8293 10.9008 23.8293C11.3362 23.8293 11.6925 23.5105 11.6925 23.1209ZM20.4008 23.1209C20.4008 23.9001 19.6883 24.5376 18.8175 24.5376C17.9466 24.5376 17.2341 23.9001 17.2341 23.1209C17.2341 22.3418 17.9466 21.7043 18.8175 21.7043C19.6883 21.7043 20.4008 22.3418 20.4008 23.1209ZM19.6091 23.1209C19.6091 22.7313 19.2529 22.4126 18.8175 22.4126C18.382 22.4126 18.0258 22.7313 18.0258 23.1209C18.0258 23.5105 18.382 23.8293 18.8175 23.8293C19.2529 23.8293 19.6091 23.5105 19.6091 23.1209ZM13.632 12.6093L13.07 13.1122L15.1995 15.0176C15.4291 15.223 15.7379 15.3293 16.0387 15.3293C16.3395 15.3293 16.6483 15.223 16.8779 15.0176L18.9995 13.1193L18.4375 12.6163L16.4266 14.4155V7.5376H15.635V14.4155L13.6162 12.6093H13.632Z" fill="white"/>
</g>
<defs>
<filter id="filter0_d_361_61" x="1.35913" y="7.5376" width="27" height="25" filterUnits="userSpaceOnUse" color-interpolation-filters="sRGB">
<feFlood flood-opacity="0" result="BackgroundImageFix"/>
<feColorMatrix in="SourceAlpha" type="matrix" values="0 0 0 0 0 0 0 0 0 0 0 0 0 0 0 0 0 0 127 0" result="hardAlpha"/>
<feOffset dy="4"/>
<feGaussianBlur stdDeviation="2"/>
<feComposite in2="hardAlpha" operator="out"/>
<feColorMatrix type="matrix" values="0 0 0 0 0 0 0 0 0 0 0 0 0 0 0 0 0 0 0.25 0"/>
<feBlend mode="normal" in2="BackgroundImageFix" result="effect1_dropShadow_361_61"/>
<feBlend mode="normal" in="SourceGraphic" in2="effect1_dropShadow_361_61" result="shape"/>
</filter>
<clipPath id="clip0_361_61">
<rect width="19" height="17" fill="white" transform="translate(5.35913 7.5376)"/>
</clipPath>
</defs>
</svg>
